<?xml version="1.0" encoding="utf-8"?>
<!-- Generator: Adobe Illustrator 16.0.0, SVG Export Plug-In . SVG Version: 6.00 Build 0)  -->
<!DOCTYPE svg PUBLIC "-//W3C//DTD SVG 1.1//EN" "http://www.w3.org/Graphics/SVG/1.1/DTD/svg11.dtd">
<svg version="1.1" id="Layer_1" xmlns="http://www.w3.org/2000/svg" xmlns:xlink="http://www.w3.org/1999/xlink" x="0px" y="0px"
	 width="32px" height="32px" viewBox="0 0 32 32" enable-background="new 0 0 32 32" xml:space="preserve">
<path fill-rule="evenodd" clip-rule="evenodd" fill="#CD132D" d="M1.471,6.075C1.336,5.304,1.216,4.663,1.201,4.01
	c-0.009-0.365-0.023-0.73,0.06-1.089C1.29,2.799,1.275,2.62,1.472,2.62c0.161,0.001,0.234,0.131,0.29,0.26
	c0.117,0.27,0.123,0.56,0.15,0.847C1.933,3.95,1.923,4.181,2.099,4.401C2.246,4.149,2.226,3.89,2.256,3.644
	C2.29,3.369,2.347,3.104,2.512,2.873C2.574,2.786,2.64,2.69,2.769,2.72C2.91,2.752,2.89,2.876,2.898,2.979
	c0.04,0.498-0.024,1.004,0.121,1.494c0.025,0.085,0.066,0.167,0.119,0.296c0.184-0.243,0.118-0.506,0.213-0.72
	c0.08-0.178,0.158-0.406,0.403-0.375C3.978,3.703,3.918,3.93,3.941,4.085c0.089,0.616,0.15,1.236,0.354,1.83
	C4.347,6.068,4.367,6.241,4.52,6.34C4.557,6.313,4.592,6.301,4.6,6.279C4.662,6.113,4.629,5.85,4.82,5.81
	c0.202-0.043,0.264,0.22,0.357,0.358c0.256,0.381,0.586,0.66,0.954,0.943c0.523,0.403,0.757,1.057,1.089,1.62
	C7.609,9.391,8.11,9.893,8.87,10.176c2.28,0.848,4.335,2.06,6.042,3.792c0.311,0.316,0.607,0.647,0.893,0.984
	c0.172,0.205,0.335,0.212,0.563,0.092c0.396-0.208,0.69-0.529,0.94-0.869c0.432-0.589,0.902-1.153,1.224-1.819
	c0.373-0.775,1.041-1.261,1.803-1.642c0.814-0.408,1.704-0.65,2.5-1.101c0.486-0.275,0.932-0.589,1.273-1.037
	c0.13-0.17,0.283-0.338,0.536-0.293c0.333,0.059,0.553-0.107,0.771-0.321c0.854-0.836,1.751-1.629,2.477-2.586
	c0.572-0.756,0.995-1.569,1.148-2.507c0.019-0.12-0.031-0.308,0.175-0.318c0.16-0.007,0.217,0.146,0.297,0.256
	c0.206,0.281,0.051,0.651,0.201,0.958c0.18-0.081,0.152-0.22,0.175-0.327c0.055-0.252,0.096-0.507,0.141-0.761
	c0.047-0.271,0.177-0.563,0.452-0.554c0.306,0.011,0.259,0.36,0.295,0.586c0.031,0.193,0.028,0.393,0.031,0.591
	c0.003,0.257,0.056,0.442,0.277,0.655c0.374,0.361,0.261,0.881,0.129,1.333c-0.201,0.692-0.615,1.29-0.963,1.916
	c-0.073,0.131-0.184,0.245-0.195,0.453c0.254-0.063,0.412-0.236,0.534-0.406c0.152-0.215,0.35-0.369,0.557-0.518
	c0.158-0.112,0.344-0.3,0.533-0.161c0.179,0.132,0.074,0.374,0.018,0.557C31.534,7.659,31.095,8,30.741,8.399
	c-0.07,0.08-0.153,0.151-0.217,0.237c-0.064,0.086-0.254,0.158-0.127,0.284c0.099,0.099,0.215-0.013,0.315-0.093
	c0.201-0.16,0.402-0.331,0.665-0.393c0.13-0.031,0.274-0.119,0.396-0.004c0.134,0.129,0.054,0.289,0.005,0.427
	c-0.134,0.384-0.384,0.692-0.708,0.939c-0.28,0.214-0.575,0.412-0.859,0.621c-0.459,0.339-0.898,0.695-1.169,1.211
	c-0.331,0.632-0.97,0.918-1.54,1.273c-0.377,0.234-0.792,0.417-0.987,0.853c-0.029,0.066-0.092,0.131-0.157,0.167
	c-0.941,0.514-1.448,1.476-2.272,2.113c-0.448,0.347-0.865,0.733-1.299,1.098c-0.256,0.214-0.56,0.382-0.641,0.747
	c-0.022,0.1-0.12,0.183-0.231,0.209c-0.249,0.059-0.294,0.228-0.29,0.448c0.004,0.192-0.049,0.371-0.271,0.427
	c-0.208,0.053-0.195,0.198-0.192,0.356c0.002,0.181,0.099,0.272,0.258,0.335c0.347,0.137,0.7,0.098,1.054,0.049
	c0.612-0.086,1.203-0.308,1.833-0.283c1.121,0.045,2.046,0.779,2.37,1.861c0.102,0.342-0.087,0.683-0.338,0.95
	c-0.31,0.329-0.686,0.578-1.114,0.724c-0.651,0.221-1.208,0.681-1.949,0.687c-0.258,0.001-0.153,0.202-0.038,0.318
	c0.357,0.358,0.539,0.785,0.464,1.282c-0.05,0.333-0.303,0.596-0.354,0.954c-0.041,0.273,0.011,0.408,0.2,0.576
	c0.581,0.513,1.084,1.068,1.189,1.889c0.067,0.526-0.255,0.704-0.644,0.85c-0.375,0.142-0.725,0.114-1-0.226
	c-0.301-0.375-0.415-0.83-0.432-1.276c-0.052-1.316-0.978-2.151-1.703-3.097c-0.158-0.207-0.298-0.088-0.322,0.136
	c-0.04,0.378-0.061,0.758,0.125,1.113c0.091,0.175,0.157,0.321-0.094,0.447c-0.238,0.12-0.09,0.269,0.019,0.403
	c0.318,0.391,0.685,0.744,0.951,1.175c0.171,0.276,0.3,0.566,0.312,0.893c0.021,0.542-0.192,0.822-0.687,0.915
	c-0.466,0.088-1.003-0.165-1.133-0.587c-0.192-0.623-0.416-1.241-0.464-1.9c-0.042-0.574-0.407-1.014-0.721-1.454
	c-1.86-2.599-4.356-4.383-7.388-5.472c-0.55-0.198-1.092-0.423-1.643-0.622c-0.586-0.211-1.176-0.272-1.753,0.043
	c-0.3,0.166-0.44-0.012-0.51-0.255c-0.082-0.282,0.015-0.534,0.216-0.753c0.552-0.602,1.281-0.888,2.042-1.118
	c0.429-0.13,0.863-0.245,1.288-0.384c0.427-0.139,0.466-0.264,0.216-0.622c-0.497-0.712-1.203-1.129-2.048-1.306
	c-0.786-0.165-1.58-0.292-2.373-0.418c-0.774-0.123-1.424-0.396-1.913-1.059c-0.674-0.915-1.654-1.54-2.469-2.324
	c-0.434-0.417-0.811-0.872-1.117-1.387C1.241,9.956,1.09,9.522,1.247,9.034c0.107-0.337-0.049-0.621-0.182-0.913
	c-0.437-0.955-0.914-1.897-0.91-2.984c0.001-0.323,0.046-0.635,0.157-0.938c0.046-0.126,0.092-0.285,0.25-0.301
	c0.169-0.016,0.21,0.151,0.275,0.265c0.177,0.315,0.196,0.669,0.232,1.015C1.1,5.473,1.182,5.742,1.471,6.075z M21.169,14.429
	c-0.162-0.09-0.304-0.153-0.426-0.241c-0.11-0.08-0.189-0.233,0.013-0.256c0.392-0.046,0.633-0.385,1.004-0.448
	c0.236-0.04,0.288-0.152,0.163-0.346c-0.188-0.293,0.021-0.372,0.247-0.438c0.322-0.095,0.66-0.046,1.014-0.051
	c-0.083-0.244-0.285-0.284-0.417-0.399c-0.103-0.089-0.272-0.188-0.209-0.324c0.218-0.477-0.14-0.314-0.347-0.317
	c-0.123-0.002-0.247,0.021-0.37,0.016c-0.087-0.003-0.202,0.002-0.228-0.109c-0.022-0.096,0.04-0.176,0.113-0.236
	c0.193-0.16,0.421-0.25,0.663-0.316c0.114-0.031,0.276-0.047,0.258-0.207c-0.021-0.181-0.188-0.174-0.329-0.17
	c-0.636,0.022-1.049,0.485-1.491,0.821c-0.207,0.158-0.373,0.328-0.604,0.262c-0.394-0.111-0.611,0.052-0.803,0.346
	c-0.108,0.165-0.241,0.316-0.365,0.471c-0.864,1.086-1.557,2.309-2.641,3.221c-0.175,0.147-0.18,0.278,0.014,0.39
	c0.212,0.122,0.299,0.278,0.264,0.525c-0.052,0.352,0.122,0.518,0.488,0.567c0.368,0.049,0.746-0.038,1.104,0.089
	c0.083,0.029,0.172,0.109,0.244,0.002c0.055-0.082,0.031-0.19-0.027-0.258c-0.313-0.37-0.017-0.436,0.256-0.46
	c0.428-0.04,0.627-0.534,0.596-0.653c-0.154-0.579,0.265-0.617,0.598-0.71c0.268-0.077,0.511-0.098,0.455-0.469
	c-0.023-0.146,0.124-0.185,0.259-0.196C20.817,14.519,20.978,14.554,21.169,14.429z M22.829,22.282
	c0.315-0.058,0.54,0.061,0.761,0.19c0.227,0.132,0.459,0.258,0.734,0.254c0.134-0.002,0.316,0.01,0.344-0.156
	c0.023-0.143-0.14-0.181-0.254-0.217c-0.206-0.066-0.415-0.12-0.621-0.183c-0.345-0.105-0.726-0.146-0.981-0.477
	c0.455-0.142,0.805,0.098,1.173,0.207c0.439,0.131,0.852,0.356,1.325,0.355c0.146-0.001,0.363,0.031,0.405-0.14
	c0.047-0.195-0.179-0.201-0.311-0.257c-0.503-0.213-1.053-0.241-1.575-0.374c-0.25-0.063-0.533-0.067-0.753-0.377
	c1.061-0.028,2.018,0.359,3.01,0.252c-0.454-0.326-0.971-0.37-1.497-0.403c-0.619-0.04-1.277,0.055-1.779-0.449
	c-0.051-0.051-0.163-0.093-0.257-0.03c0.227,0.574,0.076,0.874-0.515,1.049c-0.509,0.151-1.011,0.443-1.538,0.051
	c-0.021-0.015-0.064-0.021-0.086-0.011c-0.525,0.258-1.059-0.144-1.632,0.062c-0.33,0.118-0.43,0.178-0.386,0.469
	c0.084,0.554,0.271,1.085,0.361,1.642c0.052,0.323,0.339,0.577,0.663,0.719c0.364,0.161,0.486,0.07,0.505-0.325
	c0.009-0.192-0.079-0.46,0.094-0.551c0.186-0.099,0.333,0.152,0.497,0.251c0.091,0.055,0.172,0.139,0.271,0.167
	c0.22,0.063,0.448,0.026,0.596-0.146c0.147-0.172,0.018-0.341-0.097-0.49c-0.224-0.289-0.451-0.578-0.67-0.87
	c-0.064-0.085-0.13-0.21-0.03-0.287c0.12-0.091,0.193,0.047,0.252,0.124c0.261,0.337,0.5,0.693,0.771,1.022
	c0.213,0.257,0.568,0.292,0.789,0.127c0.238-0.18-0.03-0.406-0.172-0.567c-0.171-0.193-0.378-0.356-0.562-0.54
	c-0.07-0.07-0.185-0.158-0.083-0.266c0.087-0.092,0.215-0.043,0.296,0.022c0.226,0.182,0.446,0.374,0.655,0.574
	c0.236,0.226,0.475,0.439,0.824,0.461c0.133,0.009,0.317,0.055,0.372-0.098c0.046-0.125-0.121-0.19-0.214-0.262
	C23.29,22.626,23.059,22.455,22.829,22.282z M12.966,18.634c-0.328-0.349-0.71-0.154-1.027-0.229
	c-0.14-0.033-0.362,0.063-0.397-0.128c-0.041-0.228,0.198-0.167,0.331-0.206c0.074-0.021,0.15-0.041,0.22-0.071
	c0.093-0.041,0.153-0.117,0.115-0.218c-0.041-0.108-0.151-0.109-0.234-0.07c-0.637,0.299-1.339,0.363-2.006,0.553
	c-0.092,0.027-0.213,0.048-0.21,0.146c0.005,0.152,0.153,0.112,0.253,0.116c0.17,0.008,0.39-0.016,0.407,0.201
	c0.018,0.242-0.227,0.231-0.398,0.29c-0.333,0.114-0.691,0-1.033,0.142c0.763,0.229,1.534,0.407,2.303,0.581
	c0.065,0.015,0.151-0.016,0.129-0.082c-0.173-0.525,0.302-0.353,0.511-0.46c0.125-0.065,0.395-0.018,0.346-0.212
	c-0.143-0.561,0.096-0.491,0.454-0.313C12.771,18.691,12.84,18.655,12.966,18.634z M19.03,19.075
	c0.216-0.139,0.32,0.036,0.457,0.075c0.077,0.022,0.165,0.035,0.216-0.03c0.076-0.097,0-0.173-0.076-0.224
	c-0.52-0.353-0.975-0.797-1.566-1.043c-0.182-0.076-0.393-0.212-0.554-0.038c-0.14,0.151,0.008,0.345,0.072,0.509
	c0.203,0.52,0.555,0.964,0.703,1.524c0.07,0.266,0.541,0.317,0.831,0.46c0.057,0.028,0.104-0.057,0.094-0.121
	c-0.049-0.336,0.114-0.226,0.283-0.138c0.436,0.227,0.908,0.234,1.386,0.24C20.303,19.813,19.491,19.714,19.03,19.075z
	 M8.166,13.664c-0.271-0.43,0.014-0.781,0.074-1.162c0.028-0.174-0.094-0.344-0.255-0.459c-0.102-0.072-0.213-0.173-0.328-0.08
	c-0.117,0.096,0.033,0.186,0.064,0.277c0.085,0.246,0.126,0.499,0.132,0.758C7.859,13.242,7.925,13.464,8.166,13.664z M9.508,12.848
	c0.05-0.448-0.106-0.793-0.152-1.21C8.981,12.151,9.016,12.426,9.508,12.848z M4.363,9.917c-0.108,0.521,0.046,0.899,0.311,1.25
	C4.661,10.756,4.734,10.323,4.363,9.917z M7.927,14.333c-0.282-0.4-0.562-0.605-0.911-0.72C7.155,14,7.361,14.303,7.927,14.333z
	 M10.645,13.462c-0.179-0.305-0.105-0.711-0.407-0.957C10.23,12.884,10.337,13.217,10.645,13.462z M10.753,13.671
	c-0.012-0.023-0.022-0.046-0.034-0.07c-0.009,0.01-0.026,0.021-0.026,0.031c0.001,0.024,0.01,0.049,0.016,0.074
	C10.723,13.695,10.737,13.684,10.753,13.671z M6.917,13.525c0.011-0.011,0.03-0.021,0.03-0.032c0.001-0.01-0.018-0.021-0.028-0.032
	c-0.01,0.017-0.02,0.033-0.029,0.049C6.899,13.516,6.909,13.521,6.917,13.525z"/>
</svg>
