<?xml version="1.0" encoding="UTF-8" standalone="no"?>
<!-- Created with Inkscape (http://www.inkscape.org/) -->

<svg
   version="1.1"
   id="svg2"
   width="333.33334"
   height="80"
   viewBox="0 0 333.33334 80"
   sodipodi:docname="Eagle TIP Logo.ai"
   xmlns:inkscape="http://www.inkscape.org/namespaces/inkscape"
   xmlns:sodipodi="http://sodipodi.sourceforge.net/DTD/sodipodi-0.dtd"
   xmlns="http://www.w3.org/2000/svg"
   xmlns:svg="http://www.w3.org/2000/svg">
  <defs
     id="defs6">
    <clipPath
       clipPathUnits="userSpaceOnUse"
       id="clipPath74">
      <path
         d="M 0,60 H 250 V 0 H 0 Z"
         id="path72" />
    </clipPath>
  </defs>
  <sodipodi:namedview
     id="namedview4"
     pagecolor="#ffffff"
     bordercolor="#000000"
     borderopacity="0.25"
     inkscape:showpageshadow="2"
     inkscape:pageopacity="0.0"
     inkscape:pagecheckerboard="0"
     inkscape:deskcolor="#d1d1d1"
     showgrid="false" />
  <g
     id="g66"
     inkscape:groupmode="layer"
     inkscape:label="Page 2"
     transform="matrix(1.3333333,0,0,-1.3333333,-3.6605296e-6,80)">
    <g
       id="g68">
      <g
         id="g70"
         clip-path="url(#clipPath74)">
        <g
           id="g76"
           transform="translate(123.7266,22.0776)"
           style="fill:#ffffff;fill-opacity:1">
          <path
             d="M 0,0 H 10.796 L 10.196,7.453 -0.97,7.417 Z m 11.032,-2.202 c 0,0 -6.994,-2.009 -9.326,-1.963 -2.546,0.05 -4.428,1.583 -5.513,2.79 -0.772,0.86 -1.654,3.5 -1.849,5.481 -0.278,2.827 -0.349,3.936 0.707,5.568 0.823,1.276 2.859,2.031 5.421,2.138 2.762,0.116 7.695,0.197 9.305,0.254 l -0.613,6.746 c -3.023,0.072 -10.811,-0.087 -12.765,-0.271 -3.886,-0.366 -6.185,-1.008 -9.054,-3.613 -2.867,-2.619 -3.681,-5.609 -3.681,-10.293 0,-4.815 4.482,-10.374 5.282,-11.246 0.425,-0.468 4.71,-3.317 7.51,-3.699 6.616,-0.903 13.3,0 15.307,0.586 z"
             style="fill:#ffffff;fill-opacity:1;fill-rule:nonzero;stroke:none"
             id="path78" />
        </g>
        <g
           id="g80"
           transform="translate(155.4795,40.9619)"
           style="fill:#ffffff;fill-opacity:1">
          <path
             d="m 0,0 h 24.42 l 0.632,-7.349 H 0.658 Z"
             style="fill:#ffffff;fill-opacity:1;fill-rule:nonzero;stroke:none"
             id="path82" />
        </g>
        <g
           id="g84"
           transform="translate(182.5664,11.6396)"
           style="fill:#ffffff;fill-opacity:1">
          <path
             d="m 0,0 h -24.426 l -1.677,18.399 h 24.394 l 0.672,-7.37 H -15.18 l 0.251,-2.744 h 14.115 z"
             style="fill:#ffffff;fill-opacity:1;fill-rule:nonzero;stroke:none"
             id="path86" />
        </g>
        <g
           id="g88"
           transform="translate(51.7217,40.9619)">
          <path
             d="m 0,0 h 24.422 l 0.632,-7.349 H 0.661 Z"
             style="fill:#ffffff;fill-opacity:1;fill-rule:nonzero;stroke:none"
             id="path90" />
          <rect
             style="fill:#000000;stroke-width:0.75"
             id="rect677"
             width="22.085005"
             height="7.4979954"
             x="0.21494183"
             y="-34.579403"
             transform="scale(1,-1)" />
        </g>
        <g
           id="g92"
           transform="translate(78.8105,11.6396)"
           style="fill:#ffffff;fill-opacity:1">
          <path
             d="m 0,0 h -24.426 l -1.677,18.399 H -1.71 l 0.673,-7.37 H -15.18 l 0.251,-2.744 h 14.114 z"
             style="fill:#ffffff;fill-opacity:1;fill-rule:nonzero;stroke:none"
             id="path94" />
        </g>
        <g
           id="g96"
           transform="translate(90.6982,19.5586)"
           style="fill:#ffffff;fill-opacity:1">
          <path
             d="M 0,0 C 0.653,2.199 2.48,7.297 3.219,10.251 3.694,9.352 8.379,0 8.379,0 Z m 6.53,21.166 -8.638,0.166 5.122,-10.604 h -8.778 l -5.039,-18.647 33.678,0.01 z"
             style="fill:#ffffff;fill-opacity:1;fill-rule:nonzero;stroke:none"
             id="path98" />
        </g>
        <g
           id="g100"
           transform="translate(136.5918,11.6396)"
           style="fill:#ffffff;fill-opacity:1">
          <path
             d="M 0,0 -2.75,29.322 H 6.979 L 8.879,8.285 H 19.872 L 20.536,0 Z"
             style="fill:#ffffff;fill-opacity:1;fill-rule:nonzero;stroke:none"
             id="path102" />
        </g>
        <g
           id="g104"
           transform="translate(188.9941,40.8887)"
           style="fill:#ffffff;fill-opacity:1">
          <path
             d="m 0,0 0.601,-7.275 h 7.098 l 2.134,-21.974 h 9.635 l -2.044,21.974 h 6.104 L 22.731,0 Z"
             style="fill:#ffffff;fill-opacity:1;fill-rule:nonzero;stroke:none"
             id="path106" />
        </g>
        <g
           id="g108"
           transform="translate(212.5225,40.9619)"
           style="fill:#ffffff;fill-opacity:1">
          <path
             d="m 0,0 2.634,-29.322 h 9.703 L 9.701,0 Z"
             style="fill:#ffffff;fill-opacity:1;fill-rule:nonzero;stroke:none"
             id="path110" />
        </g>
        <g
           id="g112"
           transform="translate(241.4785,38.4595)"
           style="fill:#ffffff;fill-opacity:1">
          <path
             d="m 0,0 c -2.072,1.625 -4.965,2.429 -8.683,2.429 h -9.275 l 0.536,-7.32 9.837,0.019 c 1.271,-0.003 2.073,0.251 2.636,-0.527 0.652,-0.902 0.47,-2 -0.072,-2.488 -0.681,-0.612 -1.473,-0.537 -2.249,-0.535 l -9.646,0.009 1.637,-18.407 h 9.672 l -0.861,9.552 h 0.196 c 3.57,0 6.224,0.906 7.938,2.692 1.727,1.8 2.379,4.346 1.978,7.639 C 3.279,-3.952 2.075,-1.64 0,0"
             style="fill:#ffffff;fill-opacity:1;fill-rule:nonzero;stroke:none"
             id="path114" />
        </g>
        <g
           id="g116"
           transform="translate(12.1992,34.416)">
          <path
             d="m 0,0 c 0.015,0.016 0.042,0.029 0.042,0.044 0,0.015 -0.025,0.029 -0.04,0.044 C -0.012,0.065 -0.026,0.042 -0.04,0.02 -0.024,0.013 -0.01,0.005 0,0 M 5.29,-0.202 C 5.273,-0.17 5.258,-0.138 5.243,-0.105 5.23,-0.119 5.206,-0.134 5.206,-0.148 c 0.003,-0.033 0.013,-0.067 0.022,-0.101 0.021,0.015 0.04,0.031 0.062,0.047 M 5.141,0.087 C 4.895,0.507 4.996,1.068 4.578,1.407 4.568,0.884 4.716,0.424 5.141,0.087 M 1.394,-1.114 c -0.39,0.551 -0.777,0.835 -1.258,0.993 0.193,-0.533 0.476,-0.952 1.258,-0.993 M -3.521,4.975 C -3.67,4.256 -3.458,3.735 -3.094,3.25 -3.109,3.818 -3.009,4.415 -3.521,4.975 M 3.572,0.933 C 3.642,1.551 3.426,2.027 3.362,2.602 2.848,1.894 2.893,1.515 3.572,0.933 M 1.721,-0.191 C 1.348,0.402 1.74,0.887 1.824,1.411 1.863,1.652 1.694,1.886 1.474,2.045 1.333,2.145 1.178,2.284 1.021,2.155 0.86,2.023 1.067,1.899 1.11,1.773 1.227,1.433 1.283,1.085 1.292,0.727 1.299,0.391 1.391,0.084 1.721,-0.191 m 14.981,-7.461 c 0.298,0.192 0.442,-0.048 0.63,-0.102 0.105,-0.031 0.226,-0.049 0.297,0.041 0.104,0.133 0,0.237 -0.104,0.308 -0.718,0.486 -1.344,1.098 -2.161,1.439 -0.251,0.105 -0.54,0.293 -0.762,0.052 -0.194,-0.208 0.01,-0.475 0.1,-0.702 0.278,-0.716 0.765,-1.329 0.968,-2.101 0.098,-0.366 0.747,-0.436 1.145,-0.634 0.079,-0.038 0.144,0.079 0.13,0.167 -0.066,0.464 0.159,0.312 0.39,0.191 0.602,-0.313 1.252,-0.323 1.911,-0.331 -0.789,0.656 -1.908,0.79 -2.544,1.672 M 8.341,-7.043 C 7.889,-6.562 7.36,-6.831 6.924,-6.727 6.73,-6.682 6.427,-6.813 6.378,-6.551 c -0.057,0.314 0.271,0.231 0.454,0.284 0.104,0.029 0.208,0.057 0.306,0.099 0.129,0.056 0.211,0.161 0.158,0.3 -0.057,0.15 -0.21,0.15 -0.323,0.096 C 6.095,-6.184 5.126,-6.272 4.207,-6.534 4.08,-6.571 3.913,-6.6 3.916,-6.734 3.923,-6.944 4.127,-6.889 4.268,-6.895 4.5,-6.906 4.803,-6.873 4.826,-7.172 4.852,-7.505 4.514,-7.491 4.277,-7.571 c -0.459,-0.158 -0.953,0 -1.423,-0.196 1.051,-0.314 2.116,-0.56 3.177,-0.8 0.088,-0.02 0.206,0.022 0.177,0.112 -0.239,0.725 0.416,0.487 0.704,0.635 0.171,0.09 0.546,0.025 0.477,0.293 -0.198,0.773 0.132,0.677 0.626,0.432 0.057,-0.028 0.15,0.022 0.326,0.052 m 13.598,-5.03 c 0.435,0.08 0.744,-0.084 1.048,-0.262 0.315,-0.182 0.635,-0.356 1.015,-0.35 0.183,0.003 0.434,-0.014 0.474,0.215 0.031,0.197 -0.194,0.25 -0.353,0.3 -0.282,0.091 -0.57,0.165 -0.856,0.253 -0.476,0.145 -1.001,0.2 -1.352,0.657 0.627,0.195 1.109,-0.135 1.616,-0.284 0.607,-0.181 1.176,-0.491 1.828,-0.49 0.203,0.002 0.501,-0.043 0.558,0.194 0.063,0.268 -0.244,0.276 -0.428,0.354 -0.692,0.294 -1.452,0.332 -2.171,0.515 -0.345,0.088 -0.735,0.093 -1.037,0.519 1.461,0.039 2.781,-0.494 4.149,-0.346 -0.626,0.449 -1.339,0.509 -2.064,0.555 -0.853,0.055 -1.761,-0.075 -2.453,0.619 -0.07,0.071 -0.225,0.129 -0.354,0.042 0.311,-0.792 0.105,-1.205 -0.709,-1.447 -0.702,-0.208 -1.394,-0.611 -2.121,-0.071 -0.029,0.021 -0.087,0.03 -0.119,0.015 -0.723,-0.355 -1.46,0.199 -2.251,-0.085 -0.455,-0.163 -0.593,-0.246 -0.533,-0.647 0.117,-0.764 0.374,-1.496 0.499,-2.264 0.072,-0.445 0.468,-0.795 0.912,-0.992 0.504,-0.221 0.672,-0.096 0.699,0.448 0.011,0.265 -0.108,0.635 0.128,0.76 0.257,0.137 0.459,-0.209 0.686,-0.346 0.126,-0.076 0.238,-0.191 0.372,-0.23 0.306,-0.087 0.62,-0.036 0.822,0.201 0.204,0.237 0.026,0.47 -0.132,0.675 -0.309,0.398 -0.622,0.796 -0.924,1.199 -0.089,0.118 -0.18,0.289 -0.043,0.395 0.168,0.125 0.267,-0.065 0.348,-0.17 0.361,-0.465 0.69,-0.955 1.063,-1.409 0.294,-0.354 0.783,-0.403 1.089,-0.175 0.328,0.248 -0.043,0.56 -0.238,0.781 -0.237,0.268 -0.522,0.491 -0.774,0.745 -0.097,0.096 -0.256,0.218 -0.114,0.366 0.118,0.127 0.297,0.06 0.407,-0.03 0.311,-0.251 0.616,-0.514 0.905,-0.791 0.324,-0.312 0.654,-0.605 1.135,-0.636 0.185,-0.012 0.438,-0.075 0.514,0.136 0.063,0.173 -0.167,0.262 -0.295,0.362 -0.312,0.244 -0.631,0.48 -0.946,0.719 M 19.65,-1.246 c -0.222,0.124 -0.419,0.211 -0.587,0.332 -0.153,0.11 -0.261,0.322 0.018,0.353 0.54,0.064 0.874,0.531 1.386,0.618 0.326,0.055 0.395,0.209 0.222,0.478 -0.259,0.404 0.029,0.512 0.341,0.602 0.445,0.132 0.911,0.065 1.399,0.071 -0.116,0.336 -0.393,0.391 -0.576,0.55 -0.142,0.123 -0.375,0.258 -0.29,0.447 0.301,0.658 -0.191,0.433 -0.478,0.438 -0.168,0.002 -0.338,-0.029 -0.508,-0.022 -0.121,0.004 -0.28,-0.004 -0.315,0.15 -0.03,0.132 0.055,0.242 0.156,0.326 0.268,0.219 0.582,0.344 0.914,0.435 0.157,0.043 0.382,0.064 0.356,0.286 -0.029,0.248 -0.259,0.24 -0.453,0.234 C 20.359,4.021 19.788,3.382 19.18,2.919 18.894,2.701 18.665,2.467 18.346,2.559 17.803,2.712 17.505,2.487 17.237,2.082 17.09,1.854 16.907,1.646 16.735,1.433 15.545,-0.065 14.59,-1.75 13.093,-3.008 c -0.24,-0.202 -0.246,-0.384 0.021,-0.538 0.292,-0.167 0.413,-0.383 0.365,-0.724 -0.073,-0.485 0.167,-0.714 0.672,-0.781 0.506,-0.068 1.029,0.051 1.522,-0.123 0.117,-0.041 0.239,-0.151 0.337,-0.004 0.076,0.113 0.043,0.262 -0.035,0.356 -0.433,0.51 -0.025,0.6 0.352,0.635 0.59,0.055 0.864,0.736 0.822,0.9 -0.212,0.799 0.363,0.85 0.824,0.979 0.369,0.106 0.704,0.135 0.627,0.648 -0.032,0.2 0.17,0.254 0.355,0.27 0.21,0.02 0.432,-0.029 0.695,0.144 M -7.508,10.271 c -0.185,1.064 -0.351,1.948 -0.373,2.847 -0.012,0.504 -0.031,1.007 0.084,1.502 0.038,0.168 0.019,0.415 0.291,0.415 0.221,-10e-4 0.323,-0.181 0.399,-0.359 0.16,-0.372 0.169,-0.772 0.206,-1.167 0.029,-0.307 0.016,-0.625 0.259,-0.93 0.202,0.347 0.175,0.706 0.216,1.045 0.046,0.379 0.125,0.743 0.353,1.063 0.086,0.12 0.177,0.251 0.354,0.21 0.195,-0.044 0.167,-0.216 0.179,-0.356 0.055,-0.687 -0.033,-1.384 0.166,-2.06 0.036,-0.117 0.092,-0.229 0.163,-0.408 0.254,0.335 0.163,0.698 0.293,0.992 0.109,0.246 0.219,0.56 0.557,0.517 0.31,-0.04 0.227,-0.353 0.258,-0.567 0.124,-0.849 0.208,-1.705 0.487,-2.523 0.074,-0.211 0.1,-0.449 0.311,-0.586 0.052,0.038 0.1,0.054 0.11,0.084 0.086,0.23 0.04,0.592 0.304,0.647 0.281,0.06 0.365,-0.304 0.493,-0.494 0.354,-0.526 0.809,-0.91 1.316,-1.301 C -0.361,8.287 -0.04,7.385 0.418,6.609 0.954,5.7 1.645,5.008 2.693,4.618 5.836,3.449 8.671,1.777 11.022,-0.609 c 0.43,-0.436 0.838,-0.892 1.231,-1.357 0.238,-0.283 0.464,-0.293 0.776,-0.127 0.548,0.287 0.952,0.729 1.298,1.199 0.595,0.812 1.244,1.589 1.689,2.508 0.513,1.068 1.434,1.738 2.485,2.264 1.123,0.562 2.349,0.896 3.446,1.518 0.67,0.379 1.285,0.812 1.756,1.43 0.178,0.234 0.39,0.467 0.738,0.405 0.459,-0.082 0.763,0.147 1.063,0.442 1.178,1.153 2.416,2.245 3.416,3.565 0.788,1.042 1.372,2.163 1.583,3.456 0.026,0.166 -0.043,0.425 0.241,0.439 0.221,0.01 0.299,-0.202 0.41,-0.354 0.283,-0.388 0.071,-0.897 0.276,-1.321 0.25,0.11 0.21,0.302 0.242,0.451 0.077,0.348 0.132,0.699 0.193,1.049 0.066,0.374 0.245,0.776 0.624,0.765 0.421,-0.016 0.357,-0.497 0.408,-0.808 0.042,-0.267 0.037,-0.542 0.041,-0.815 0.004,-0.354 0.078,-0.609 0.382,-0.904 0.516,-0.497 0.361,-1.214 0.179,-1.838 C 33.224,10.404 32.652,9.58 32.173,8.717 32.07,8.536 31.919,8.379 31.903,8.092 c 0.351,0.088 0.568,0.325 0.736,0.559 0.21,0.297 0.481,0.51 0.767,0.714 0.217,0.155 0.474,0.414 0.736,0.222 C 34.387,9.405 34.243,9.073 34.165,8.82 33.94,8.087 33.335,7.617 32.849,7.067 32.751,6.956 32.636,6.858 32.547,6.741 32.459,6.621 32.196,6.522 32.372,6.349 c 0.137,-0.138 0.296,0.018 0.435,0.128 0.278,0.22 0.553,0.456 0.917,0.541 0.178,0.043 0.376,0.165 0.543,0.007 0.186,-0.178 0.075,-0.4 0.008,-0.59 C 34.09,5.905 33.744,5.481 33.299,5.141 32.913,4.846 32.506,4.573 32.113,4.285 31.48,3.818 30.874,3.327 30.503,2.614 30.046,1.743 29.164,1.349 28.378,0.858 27.858,0.535 27.285,0.284 27.019,-0.317 26.978,-0.409 26.89,-0.499 26.8,-0.547 25.503,-1.256 24.805,-2.582 23.668,-3.461 23.05,-3.939 22.476,-4.472 21.876,-4.975 21.523,-5.27 21.104,-5.502 20.994,-6.004 c -0.033,-0.137 -0.167,-0.251 -0.32,-0.288 -0.341,-0.082 -0.406,-0.315 -0.401,-0.617 0.008,-0.265 -0.067,-0.512 -0.372,-0.589 -0.286,-0.072 -0.269,-0.273 -0.265,-0.491 0.005,-0.249 0.135,-0.376 0.357,-0.462 0.477,-0.19 0.964,-0.136 1.452,-0.068 0.845,0.119 1.658,0.424 2.528,0.39 1.546,-0.062 2.82,-1.075 3.265,-2.566 0.141,-0.471 -0.119,-0.941 -0.465,-1.31 -0.424,-0.454 -0.946,-0.797 -1.535,-0.998 -0.897,-0.305 -1.668,-0.939 -2.687,-0.947 -0.356,-0.001 -0.211,-0.278 -0.052,-0.438 0.491,-0.494 0.744,-1.082 0.64,-1.767 -0.069,-0.459 -0.418,-0.822 -0.49,-1.315 -0.055,-0.377 0.017,-0.562 0.278,-0.794 0.801,-0.707 1.495,-1.473 1.64,-2.604 0.093,-0.725 -0.353,-0.969 -0.888,-1.172 -0.517,-0.195 -0.998,-0.158 -1.379,0.311 -0.415,0.519 -0.571,1.145 -0.595,1.76 -0.069,1.815 -1.348,2.966 -2.347,4.27 -0.218,0.284 -0.41,0.121 -0.442,-0.188 -0.057,-0.522 -0.085,-1.046 0.172,-1.535 0.124,-0.242 0.216,-0.442 -0.131,-0.617 -0.328,-0.165 -0.126,-0.369 0.026,-0.554 0.439,-0.54 0.945,-1.026 1.311,-1.621 0.238,-0.381 0.413,-0.781 0.432,-1.231 0.029,-0.747 -0.268,-1.133 -0.949,-1.261 -0.643,-0.121 -1.382,0.227 -1.561,0.809 -0.264,0.858 -0.574,1.71 -0.642,2.62 -0.057,0.791 -0.559,1.398 -0.993,2.004 -2.564,3.583 -6.006,6.043 -10.185,7.544 C 5.637,-9.455 4.889,-9.146 4.13,-8.872 3.321,-8.58 2.508,-8.496 1.714,-8.931 1.299,-9.159 1.105,-8.915 1.01,-8.579 c -0.113,0.39 0.02,0.736 0.298,1.038 0.761,0.83 1.765,1.225 2.816,1.542 0.592,0.18 1.189,0.338 1.774,0.529 0.59,0.192 0.644,0.364 0.299,0.857 -0.685,0.982 -1.658,1.557 -2.824,1.801 -1.084,0.228 -2.178,0.403 -3.272,0.577 -1.066,0.169 -1.963,0.545 -2.636,1.459 -0.93,1.261 -2.28,2.123 -3.403,3.205 -0.6,0.575 -1.119,1.201 -1.541,1.911 -0.344,0.581 -0.554,1.179 -0.338,1.852 0.148,0.465 -0.067,0.856 -0.25,1.259 -0.602,1.316 -1.259,2.616 -1.256,4.114 0.002,0.445 0.063,0.876 0.217,1.293 0.063,0.174 0.127,0.393 0.345,0.414 0.234,0.022 0.291,-0.208 0.379,-0.365 0.245,-0.434 0.269,-0.922 0.32,-1.4 0.042,-0.405 0.156,-0.776 0.554,-1.236"
             style="fill:#cd132d;fill-opacity:1;fill-rule:evenodd;stroke:none"
             id="path118" />
        </g>
      </g>
    </g>
  </g>
</svg>
